<mxfile host="65bd71144e">
    <diagram id="6TcPL_EzFMyiEL8BHNqk" name="Page-1">
        <mxGraphModel dx="1053" dy="493" grid="1" gridSize="10" guides="1" tooltips="1" connect="1" arrows="1" fold="1" page="1" pageScale="1" pageWidth="850" pageHeight="1100" math="0" shadow="0">
            <root>
                <mxCell id="0"/>
                <mxCell id="1" parent="0"/>
                <mxCell id="2" value="" style="endArrow=none;dashed=1;html=1;dashPattern=1 3;strokeWidth=2;" edge="1" parent="1">
                    <mxGeometry width="50" height="50" relative="1" as="geometry">
                        <mxPoint x="360" y="390" as="sourcePoint"/>
                        <mxPoint x="360" y="40" as="targetPoint"/>
                        <Array as="points">
                            <mxPoint x="360" y="230"/>
                        </Array>
                    </mxGeometry>
                </mxCell>
                <mxCell id="3" value="" style="endArrow=none;dashed=1;html=1;dashPattern=1 3;strokeWidth=2;" edge="1" parent="1">
                    <mxGeometry width="50" height="50" relative="1" as="geometry">
                        <mxPoint x="278" y="388.9999999999999" as="sourcePoint"/>
                        <mxPoint x="278" y="39" as="targetPoint"/>
                        <Array as="points">
                            <mxPoint x="278" y="229"/>
                        </Array>
                    </mxGeometry>
                </mxCell>
                <mxCell id="4" value="" style="endArrow=none;dashed=1;html=1;dashPattern=1 3;strokeWidth=2;" edge="1" parent="1">
                    <mxGeometry width="50" height="50" relative="1" as="geometry">
                        <mxPoint x="199" y="387.9999999999999" as="sourcePoint"/>
                        <mxPoint x="199" y="38" as="targetPoint"/>
                        <Array as="points">
                            <mxPoint x="199" y="228"/>
                        </Array>
                    </mxGeometry>
                </mxCell>
                <mxCell id="5" value="" style="endArrow=none;dashed=1;html=1;dashPattern=1 3;strokeWidth=2;" edge="1" parent="1">
                    <mxGeometry width="50" height="50" relative="1" as="geometry">
                        <mxPoint x="119" y="388.9999999999999" as="sourcePoint"/>
                        <mxPoint x="119" y="39" as="targetPoint"/>
                        <Array as="points">
                            <mxPoint x="119" y="229"/>
                        </Array>
                    </mxGeometry>
                </mxCell>
                <mxCell id="6" value="" style="endArrow=none;dashed=1;html=1;dashPattern=1 3;strokeWidth=2;" edge="1" parent="1">
                    <mxGeometry width="50" height="50" relative="1" as="geometry">
                        <mxPoint x="679" y="388.9999999999999" as="sourcePoint"/>
                        <mxPoint x="679" y="39" as="targetPoint"/>
                        <Array as="points">
                            <mxPoint x="679" y="229"/>
                        </Array>
                    </mxGeometry>
                </mxCell>
                <mxCell id="7" value="" style="endArrow=none;dashed=1;html=1;dashPattern=1 3;strokeWidth=2;" edge="1" parent="1">
                    <mxGeometry width="50" height="50" relative="1" as="geometry">
                        <mxPoint x="597" y="387.9999999999999" as="sourcePoint"/>
                        <mxPoint x="597" y="38" as="targetPoint"/>
                        <Array as="points">
                            <mxPoint x="597" y="228"/>
                        </Array>
                    </mxGeometry>
                </mxCell>
                <mxCell id="8" value="" style="endArrow=none;dashed=1;html=1;dashPattern=1 3;strokeWidth=2;" edge="1" parent="1">
                    <mxGeometry width="50" height="50" relative="1" as="geometry">
                        <mxPoint x="518" y="387" as="sourcePoint"/>
                        <mxPoint x="518" y="37" as="targetPoint"/>
                        <Array as="points">
                            <mxPoint x="518" y="227"/>
                        </Array>
                    </mxGeometry>
                </mxCell>
                <mxCell id="9" value="" style="endArrow=none;dashed=1;html=1;dashPattern=1 3;strokeWidth=2;" edge="1" parent="1">
                    <mxGeometry width="50" height="50" relative="1" as="geometry">
                        <mxPoint x="438" y="387.9999999999999" as="sourcePoint"/>
                        <mxPoint x="438" y="38" as="targetPoint"/>
                        <Array as="points">
                            <mxPoint x="438" y="228"/>
                        </Array>
                    </mxGeometry>
                </mxCell>
            </root>
        </mxGraphModel>
    </diagram>
</mxfile>